<svg width="116" height="76" viewBox="0 0 116 76" fill="none" xmlns="http://www.w3.org/2000/svg">
<g clip-path="url(#clip0_700_3944)">
<path d="M36.6518 72.2849H114.794C115.557 72.2849 116.088 71.6748 115.987 70.918L108.088 12.9857C107.986 12.2289 107.293 11.6188 106.544 11.6188H29.4648C28.716 11.6188 28.1799 12.2289 28.2677 12.9857L35.1127 70.918C35.2052 71.6748 35.8938 72.2849 36.6518 72.2849Z" fill="#3B2645"/>
<path d="M35.8891 72.2849H114.031C114.794 72.2849 115.325 71.6748 115.224 70.918L107.32 12.9857C107.219 12.2289 106.525 11.6188 105.777 11.6188H28.7021C27.9533 11.6188 27.4172 12.2289 27.505 12.9857L34.35 70.918C34.4425 71.6748 35.1311 72.2849 35.8891 72.2849Z" fill="url(#paint0_linear_700_3944)"/>
<path opacity="0.3" d="M111.009 40.0209L102.948 72.285H80.814L107.478 14.1234L111.009 40.0209Z" fill="#543753"/>
<path d="M99.3616 72.2849H21.2196C20.4569 72.2849 19.9254 71.6748 20.0271 70.918L27.9259 12.9857C28.0276 12.2289 28.7209 11.6188 29.4696 11.6188H106.544C107.293 11.6188 107.829 12.2289 107.741 12.9857L100.896 70.918C100.808 71.6748 100.12 72.2849 99.3616 72.2849Z" fill="#3B2645"/>
<path d="M98.5945 72.2849H20.4569C19.6943 72.2849 19.1627 71.6748 19.2644 70.918L27.1632 12.9857C27.2649 12.2289 27.9582 11.6188 28.7069 11.6188H105.781C106.53 11.6188 107.066 12.2289 106.979 12.9857L100.134 70.918C100.046 71.6748 99.3571 72.2849 98.5945 72.2849Z" fill="url(#paint1_linear_700_3944)"/>
<path d="M97.4203 70.7987H22.0374C21.8433 70.7987 21.6677 70.7253 21.5475 70.5877C21.4273 70.4501 21.3719 70.2666 21.3996 70.0694L27.8564 22.5494C27.9072 22.1641 28.2677 21.8476 28.6513 21.8476H103.211C103.401 21.8476 103.577 21.921 103.697 22.0586C103.822 22.1962 103.877 22.3796 103.854 22.5769L98.2152 70.0923C98.169 70.4822 97.8131 70.7987 97.4203 70.7987ZM28.6513 22.054C28.3648 22.054 28.0967 22.2879 28.0597 22.5769L21.603 70.0969C21.5845 70.2299 21.6214 70.3584 21.7 70.4501C21.7832 70.5419 21.8988 70.5923 22.0328 70.5923H97.4156C97.7068 70.5923 97.9703 70.3584 98.0026 70.0694L103.641 22.5539C103.66 22.4163 103.618 22.2925 103.535 22.1962C103.452 22.1044 103.336 22.054 103.207 22.054H28.6513Z" fill="white"/>
<path d="M83.1156 20.1963H51.8578C51.3679 20.1963 50.9288 20.0037 50.6191 19.6597C50.3048 19.3019 50.1662 18.8295 50.2309 18.3203C50.3649 17.302 51.2985 16.4718 52.3154 16.4718H83.55C84.04 16.4718 84.4837 16.6644 84.7887 17.0085C85.1076 17.3662 85.2463 17.8387 85.1862 18.3432C85.0614 19.3661 84.1324 20.1963 83.1156 20.1963ZM52.3154 16.6736C51.4002 16.6736 50.559 17.4213 50.4342 18.3432C50.3742 18.7882 50.4943 19.2102 50.7716 19.5175C51.0397 19.8202 51.4233 19.9854 51.8532 19.9854H83.111C84.0261 19.9854 84.8627 19.2377 84.9782 18.3157C85.0337 17.8708 84.9089 17.4488 84.6316 17.1415C84.3635 16.8388 83.9753 16.6736 83.5454 16.6736H52.3154Z" fill="white"/>
<path d="M68.5337 32.0899H60.7505L61.5362 25.9481H69.3102L68.5337 32.0899Z" fill="#F2F9FF"/>
<path d="M78.5354 32.0899H70.7476L71.524 25.9481H79.298L78.5354 32.0899Z" fill="#F2F9FF"/>
<path d="M88.5373 32.0899H80.7495L81.5075 25.9481H89.286L88.5373 32.0899Z" fill="#F2F9FF"/>
<path d="M98.5388 32.0899H90.751L91.4951 25.9481H99.2691L98.5388 32.0899Z" fill="url(#paint2_radial_700_3944)"/>
<path d="M37.3359 41.08H29.5342L30.3615 34.9382H38.154L37.3359 41.08Z" fill="#F2F9FF"/>
<path d="M47.3565 41.08H39.5547L40.3681 34.9382H48.1607L47.3565 41.08Z" fill="#F2F9FF"/>
<path d="M57.3764 41.08H49.5747L50.3743 34.9382H58.1668L57.3764 41.08Z" fill="#F2F9FF"/>
<path d="M67.397 41.08H59.5952L60.3809 34.9382H68.1734L67.397 41.08Z" fill="#F2F9FF"/>
<path d="M77.4216 41.08H69.6152L70.3917 34.9382H78.1796L77.4216 41.08Z" fill="#F2F9FF"/>
<path d="M87.4416 41.08H79.6353L80.3979 34.9382H88.1903L87.4416 41.08Z" fill="#F2F9FF"/>
<path d="M97.4619 41.08H89.6602L90.4043 34.9382H98.1968L97.4619 41.08Z" fill="url(#paint3_radial_700_3944)"/>
<path d="M36.1386 50.0753H28.3184L29.1457 43.9334H36.9567L36.1386 50.0753Z" fill="#F2F9FF"/>
<path d="M46.1774 50.0753H38.3618L39.1753 43.9334H46.9816L46.1774 50.0753Z" fill="#F2F9FF"/>
<path d="M56.2211 50.0753H48.4009L49.2051 43.9334H57.0114L56.2211 50.0753Z" fill="#F2F9FF"/>
<path d="M66.2594 50.0753H58.4438L59.2296 43.9334H67.0359L66.2594 50.0753Z" fill="#F2F9FF"/>
<path d="M76.3031 50.0753H68.4829L69.2594 43.9334H77.0658L76.3031 50.0753Z" fill="#F2F9FF"/>
<path d="M86.3465 50.0753H78.5264L79.2844 43.9334H87.0953L86.3465 50.0753Z" fill="#F2F9FF"/>
<path d="M96.3852 50.0753H88.5649L89.3137 43.9334H97.12L96.3852 50.0753Z" fill="url(#paint4_radial_700_3944)"/>
<path d="M34.9417 59.0704H27.103L27.935 52.9285H35.7598L34.9417 59.0704Z" fill="#F2F9FF"/>
<path d="M45.0037 59.0704H37.165L37.9831 52.9285H45.8079L45.0037 59.0704Z" fill="#F2F9FF"/>
<path d="M55.0657 59.0704H47.2271L48.0313 52.9285H55.8561L55.0657 59.0704Z" fill="#F2F9FF"/>
<path d="M65.1273 59.0704H57.2886L58.0789 52.9285H65.8991L65.1273 59.0704Z" fill="#F2F9FF"/>
<path d="M75.1847 59.0704H67.3506L68.1271 52.9285H75.9473L75.1847 59.0704Z" fill="#F2F9FF"/>
<path d="M85.2462 59.0704H77.4121L78.1747 52.9285H85.9949L85.2462 59.0704Z" fill="#F2F9FF"/>
<path d="M95.3083 59.0704H87.4741L88.2229 52.9285H96.0432L95.3083 59.0704Z" fill="url(#paint5_radial_700_3944)"/>
<path d="M33.74 68.0606H25.8921L26.7194 61.9188H34.5581L33.74 68.0606Z" fill="#F2F9FF"/>
<path d="M43.8252 68.0606H35.9727L36.7907 61.9188H44.6294L43.8252 68.0606Z" fill="#F2F9FF"/>
<path d="M53.9056 68.0606H46.0576L46.8572 61.9188H54.6959L53.9056 68.0606Z" fill="#F2F9FF"/>
<path d="M63.9903 68.0606H56.1377L56.9234 61.9188H64.7668L63.9903 68.0606Z" fill="#F2F9FF"/>
<path d="M74.0708 68.0606H66.2183L66.9947 61.9188H74.8334L74.0708 68.0606Z" fill="#FDF8EE"/>
<path d="M99.5182 24.1775H91.7442C91.5732 24.1775 91.4346 24.0399 91.4346 23.8702C91.4346 23.7005 91.5732 23.5629 91.7442 23.5629H99.5182C99.6892 23.5629 99.8279 23.7005 99.8279 23.8702C99.8279 24.0399 99.6892 24.1775 99.5182 24.1775Z" fill="#F2F9FF"/>
<path d="M89.5353 24.1775H81.7613C81.5903 24.1775 81.4517 24.0399 81.4517 23.8702C81.4517 23.7005 81.5903 23.5629 81.7613 23.5629H89.5353C89.7063 23.5629 89.845 23.7005 89.845 23.8702C89.845 24.0399 89.7063 24.1775 89.5353 24.1775Z" fill="url(#paint6_radial_700_3944)"/>
<path d="M79.5568 24.1775H71.7828C71.6118 24.1775 71.4731 24.0399 71.4731 23.8702C71.4731 23.7005 71.6118 23.5629 71.7828 23.5629H79.5568C79.7278 23.5629 79.8665 23.7005 79.8665 23.8702C79.8665 24.0399 79.7278 24.1775 79.5568 24.1775Z" fill="url(#paint7_radial_700_3944)"/>
<path d="M69.5734 24.1775H61.7994C61.6284 24.1775 61.4897 24.0399 61.4897 23.8702C61.4897 23.7005 61.6284 23.5629 61.7994 23.5629H69.5734C69.7444 23.5629 69.8831 23.7005 69.8831 23.8702C69.8831 24.0399 69.7444 24.1775 69.5734 24.1775Z" fill="url(#paint8_radial_700_3944)"/>
<path d="M59.5901 24.1775H51.816C51.645 24.1775 51.5063 24.0399 51.5063 23.8702C51.5063 23.7005 51.645 23.5629 51.816 23.5629H59.5901C59.7611 23.5629 59.8998 23.7005 59.8998 23.8702C59.8998 24.0399 59.7611 24.1775 59.5901 24.1775Z" fill="url(#paint9_radial_700_3944)"/>
<path d="M49.6115 24.1775H41.8375C41.6665 24.1775 41.5278 24.0399 41.5278 23.8702C41.5278 23.7005 41.6665 23.5629 41.8375 23.5629H49.6115C49.7825 23.5629 49.9212 23.7005 49.9212 23.8702C49.9212 24.0399 49.7825 24.1775 49.6115 24.1775Z" fill="url(#paint10_radial_700_3944)"/>
<path d="M39.6281 24.1775H31.8541C31.6831 24.1775 31.5444 24.0399 31.5444 23.8702C31.5444 23.7005 31.6831 23.5629 31.8541 23.5629H39.6281C39.7991 23.5629 39.9378 23.7005 39.9378 23.8702C39.9378 24.0399 39.7991 24.1775 39.6281 24.1775Z" fill="url(#paint11_radial_700_3944)"/>
<path d="M35.6722 14.1234C35.6167 14.5408 35.2331 14.8802 34.8171 14.8802C34.4012 14.8802 34.11 14.5408 34.1655 14.1234C34.2209 13.706 34.6045 13.3666 35.0205 13.3666C35.4365 13.3666 35.7323 13.706 35.6722 14.1234Z" fill="#3B2645"/>
<path d="M35.3441 8.72906C34.6832 8.72906 34.0038 8.95841 33.4353 9.37582C32.6681 9.93542 32.1597 10.7702 32.0395 11.6601C31.8223 13.2747 32.95 14.5911 34.5584 14.5911C34.6555 14.5911 34.7525 14.5865 34.8496 14.5773C35.0992 14.5544 35.3118 14.3297 35.321 14.082C35.3303 13.8343 35.1361 13.6508 34.8819 13.6737C34.8172 13.6783 34.7479 13.6829 34.6832 13.6829C33.5739 13.6829 32.7928 12.7747 32.9454 11.6601C33.0286 11.0454 33.3798 10.4675 33.9113 10.0822C34.3088 9.78864 34.7664 9.63727 35.2286 9.63727C36.324 9.63727 37.0958 10.5225 36.971 11.6234H37.8723C38.0572 10.0226 36.9341 8.72906 35.3441 8.72906Z" fill="#5080C0"/>
<path d="M35.6722 14.1234C35.6167 14.5408 35.2331 14.8802 34.8171 14.8802C34.4012 14.8802 34.11 14.5408 34.1655 14.1234C34.2209 13.706 34.6045 13.3666 35.0205 13.3666C35.4365 13.3666 35.7323 13.706 35.6722 14.1234Z" fill="#3B2645"/>
<path d="M35.3441 8.72906C34.6832 8.72906 34.0038 8.95841 33.4353 9.37582C32.6681 9.93542 32.1597 10.7702 32.0395 11.6601C31.8223 13.2747 32.95 14.5911 34.5584 14.5911C34.6555 14.5911 34.7525 14.5865 34.8496 14.5773C35.0992 14.5544 35.3118 14.3297 35.321 14.082C35.3303 13.8343 35.1361 13.6508 34.8819 13.6737C34.8172 13.6783 34.7479 13.6829 34.6832 13.6829C33.5739 13.6829 32.7928 12.7747 32.9454 11.6601C33.0286 11.0454 33.3798 10.4675 33.9113 10.0822C34.3088 9.78864 34.7664 9.63727 35.2286 9.63727C36.324 9.63727 37.0958 10.5225 36.971 11.6234H37.8723C38.0572 10.0226 36.9341 8.72906 35.3441 8.72906Z" fill="#AA8CA7"/>
<path d="M43.8113 14.1234C43.7559 14.5408 43.3723 14.8802 42.9563 14.8802C42.5403 14.8802 42.2492 14.5408 42.3046 14.1234C42.3601 13.706 42.7437 13.3666 43.1597 13.3666C43.5756 13.3666 43.8668 13.706 43.8113 14.1234Z" fill="#3B2645"/>
<path d="M43.4695 8.72906C42.8086 8.72906 42.1292 8.95841 41.5607 9.37582C40.7935 9.93542 40.2851 10.7702 40.1649 11.6601C39.9477 13.2747 41.08 14.5911 42.6884 14.5911C42.7855 14.5911 42.8826 14.5865 42.9796 14.5773C43.2292 14.5544 43.4418 14.3297 43.4511 14.082C43.4603 13.8343 43.2616 13.6508 43.012 13.6737C42.9473 13.6783 42.8779 13.6829 42.8132 13.6829C41.704 13.6829 40.9229 12.7747 41.0708 11.6601C41.154 11.0454 41.5052 10.4675 42.0321 10.0822C42.4296 9.78864 42.8872 9.63727 43.3494 9.63727C44.4448 9.63727 45.2212 10.5225 45.0964 11.6234H45.9977C46.1872 10.0226 45.0641 8.72906 43.4695 8.72906Z" fill="#AA8CA7"/>
<path d="M51.9505 14.1234C51.895 14.5408 51.516 14.8802 51.1001 14.8802C50.6841 14.8802 50.3929 14.5408 50.4437 14.1234C50.4992 13.706 50.8782 13.3666 51.2942 13.3666C51.7148 13.3666 52.006 13.706 51.9505 14.1234Z" fill="#3B2645"/>
<path d="M51.5991 8.72906C50.9382 8.72906 50.2588 8.95841 49.6903 9.37582C48.923 9.93542 48.4193 10.7702 48.2991 11.6601C48.0865 13.2747 49.2188 14.5911 50.8272 14.5911C50.9243 14.5911 51.0214 14.5865 51.1184 14.5773C51.368 14.5544 51.5806 14.3297 51.5852 14.082C51.5945 13.8343 51.3957 13.6508 51.1462 13.6737C51.0815 13.6783 51.0121 13.6829 50.9474 13.6829C49.8382 13.6829 49.0525 12.7747 49.2004 11.6601C49.2835 11.0454 49.6302 10.4675 50.1617 10.0822C50.5592 9.78864 51.0168 9.63727 51.4789 9.63727C52.5743 9.63727 53.3508 10.5225 53.2306 11.6234H54.1319C54.3168 10.0226 53.189 8.72906 51.5991 8.72906Z" fill="#AA8CA7"/>
<path d="M60.0895 14.1234C60.0341 14.5408 59.6551 14.8802 59.2391 14.8802C58.8232 14.8802 58.5274 14.5408 58.5829 14.1234C58.6383 13.706 59.0173 13.3666 59.4333 13.3666C59.8492 13.3666 60.145 13.706 60.0895 14.1234Z" fill="#3B2645"/>
<path d="M59.7294 8.72906C59.0685 8.72906 58.3937 8.95841 57.8252 9.37582C57.0626 9.93542 56.5542 10.7702 56.4386 11.6601C56.2306 13.2747 57.3676 14.5911 58.9714 14.5911C59.0685 14.5911 59.1655 14.5865 59.2626 14.5773C59.5122 14.5544 59.7248 14.3297 59.7294 14.082C59.7386 13.8343 59.5399 13.6508 59.2903 13.6737C59.2256 13.6783 59.1563 13.6829 59.0916 13.6829C57.9823 13.6829 57.1966 12.7747 57.3399 11.6601C57.4184 11.0454 57.7697 10.4675 58.2966 10.0822C58.6941 9.78864 59.1517 9.63727 59.6138 9.63727C60.7092 9.63727 61.4857 10.5225 61.3655 11.6234H62.2668C62.4471 10.0226 61.3193 8.72906 59.7294 8.72906Z" fill="#AA8CA7"/>
<path d="M68.2288 14.1234C68.1779 14.5408 67.7943 14.8802 67.3783 14.8802C66.9624 14.8802 66.6666 14.5408 66.722 14.1234C66.7775 13.706 67.1565 13.3666 67.5725 13.3666C67.9884 13.3666 68.2796 13.706 68.2288 14.1234Z" fill="#3B2645"/>
<path d="M67.8545 8.72906C67.1936 8.72906 66.5188 8.95841 65.9503 9.37582C65.1877 9.93542 64.684 10.7702 64.5684 11.6601C64.3604 13.2747 65.502 14.5911 67.1104 14.5911C67.2075 14.5911 67.3045 14.5865 67.4016 14.5773C67.6512 14.5544 67.8638 14.3297 67.8684 14.082C67.8776 13.8343 67.6789 13.6508 67.4293 13.6737C67.3646 13.6783 67.2953 13.6829 67.2306 13.6829C66.1213 13.6829 65.3356 12.7747 65.4743 11.6601C65.5529 11.0454 65.8995 10.4675 66.4264 10.0822C66.8239 9.78864 67.2768 9.63727 67.7436 9.63727C68.839 9.63727 69.6201 10.5225 69.4999 11.6234H70.4012C70.5814 10.0226 69.4491 8.72906 67.8545 8.72906Z" fill="#AA8CA7"/>
<path d="M76.3679 14.1234C76.3171 14.5408 75.9381 14.8802 75.5175 14.8802C75.1015 14.8802 74.8057 14.5408 74.8612 14.1234C74.912 13.706 75.2956 13.3666 75.7116 13.3666C76.1276 13.3666 76.4188 13.706 76.3679 14.1234Z" fill="#3B2645"/>
<path d="M75.9842 8.72906C75.3233 8.72906 74.6485 8.95841 74.08 9.37582C73.3174 9.93542 72.8136 10.7702 72.7027 11.6601C72.4993 13.2747 73.6409 14.5911 75.2493 14.5911C75.3464 14.5911 75.4435 14.5865 75.5405 14.5773C75.7901 14.5544 75.9981 14.3297 76.0073 14.082C76.012 13.8343 75.8178 13.6508 75.5636 13.6737C75.4989 13.6783 75.4296 13.6829 75.3649 13.6829C74.2556 13.6829 73.4653 12.7747 73.6086 11.6601C73.6871 11.0454 74.0338 10.4675 74.5607 10.0822C74.9582 9.78864 75.4111 9.63727 75.8733 9.63727C76.9687 9.63727 77.7498 10.5225 77.6342 11.6234H78.5355C78.7112 10.0226 77.5742 8.72906 75.9842 8.72906Z" fill="#AA8CA7"/>
<path d="M84.5022 14.1234C84.4513 14.5408 84.0723 14.8802 83.6564 14.8802C83.2404 14.8802 82.9446 14.5408 82.9954 14.1234C83.0463 13.706 83.4253 13.3666 83.8412 13.3666C84.2618 13.3666 84.5577 13.706 84.5022 14.1234Z" fill="#3B2645"/>
<path d="M84.1095 8.72906C83.4485 8.72906 82.7737 8.95841 82.2052 9.37582C81.4426 9.93542 80.9435 10.7702 80.8325 11.6601C80.6338 13.2747 81.7754 14.5911 83.3838 14.5911C83.4809 14.5911 83.578 14.5865 83.675 14.5773C83.9246 14.5544 84.1326 14.3297 84.1418 14.082C84.1464 13.8343 83.9523 13.6508 83.6981 13.6737C83.6334 13.6783 83.5641 13.6829 83.4994 13.6829C82.3901 13.6829 81.5998 12.7747 81.7384 11.6601C81.817 11.0454 82.159 10.4675 82.6859 10.0822C83.0834 9.78864 83.5364 9.63727 83.9985 9.63727C85.0939 9.63727 85.8797 10.5225 85.7641 11.6234H86.6654C86.841 10.0226 85.704 8.72906 84.1095 8.72906Z" fill="#AA8CA7"/>
<path d="M92.6418 14.1234C92.5909 14.5408 92.2119 14.8802 91.796 14.8802C91.38 14.8802 91.0842 14.5408 91.1351 14.1234C91.1859 13.706 91.5649 13.3666 91.9809 13.3666C92.3968 13.3666 92.6926 13.706 92.6418 14.1234Z" fill="#3B2645"/>
<path d="M92.2393 8.72906C91.5783 8.72906 90.9035 8.95841 90.3397 9.37582C89.5817 9.93542 89.0825 10.7702 88.9716 11.6601C88.7729 13.2747 89.9191 14.5911 91.5275 14.5911C91.6246 14.5911 91.7216 14.5865 91.8187 14.5773C92.0682 14.5544 92.2762 14.3297 92.2809 14.082C92.2855 13.8343 92.0867 13.6508 91.8372 13.6737C91.7724 13.6783 91.7031 13.6829 91.6384 13.6829C90.5292 13.6829 89.7342 12.7747 89.8729 11.6601C89.9468 11.0454 90.2935 10.4675 90.8204 10.0822C91.2178 9.78864 91.6708 9.63727 92.133 9.63727C93.2283 9.63727 94.014 10.5225 93.9031 11.6234H94.8044C94.9708 10.0226 93.8338 8.72906 92.2393 8.72906Z" fill="#AA8CA7"/>
<path d="M100.78 14.1234C100.73 14.5408 100.351 14.8802 99.9347 14.8802C99.5187 14.8802 99.2229 14.5408 99.2738 14.1234C99.3246 13.706 99.7036 13.3666 100.12 13.3666C100.535 13.3666 100.831 13.706 100.78 14.1234Z" fill="#3B2645"/>
<path d="M100.369 8.72906C99.7085 8.72906 99.0337 8.95841 98.4698 9.37582C97.7118 9.93542 97.2126 10.7702 97.1063 11.6601C96.9122 13.2747 98.063 14.5911 99.6668 14.5911C99.7639 14.5911 99.861 14.5865 99.958 14.5773C100.208 14.5544 100.416 14.3297 100.42 14.082C100.425 13.8343 100.226 13.6508 99.9765 13.6737C99.9118 13.6783 99.8425 13.6829 99.7778 13.6829C98.6685 13.6829 97.8736 12.7747 98.0076 11.6601C98.0815 11.0454 98.4236 10.4675 98.9505 10.0822C99.3479 9.78864 99.8009 9.63727 100.263 9.63727C101.358 9.63727 102.144 10.5225 102.033 11.6234H102.935C103.101 10.0226 101.959 8.72906 100.369 8.72906Z" fill="#AA8CA7"/>
<path d="M45.4473 40.1216C45.3641 40.1216 45.2809 40.0895 45.2208 40.0253L41.8006 36.3788C41.6851 36.2549 41.6897 36.0623 41.8145 35.943C41.9393 35.8283 42.1334 35.8329 42.2536 35.9568L45.6738 39.6033C45.7893 39.7272 45.7847 39.9198 45.6599 40.0391C45.5952 40.0941 45.5212 40.1216 45.4473 40.1216Z" fill="#3B2645"/>
<path d="M41.7036 40.1216C41.6158 40.1216 41.528 40.0849 41.4679 40.0115C41.357 39.8831 41.3709 39.6904 41.5049 39.5803L45.8171 35.9338C45.9465 35.8237 46.1407 35.8374 46.2516 35.9704C46.3625 36.0989 46.3486 36.2915 46.2146 36.4016L41.9024 40.0482C41.8469 40.0986 41.7776 40.1216 41.7036 40.1216Z" fill="#3B2645"/>
<path d="M64.1154 48.6396C64.0322 48.6396 63.949 48.6075 63.8889 48.5432L60.9217 45.3829C60.8062 45.2591 60.8108 45.0664 60.9356 44.9472C61.0604 44.8325 61.2545 44.8371 61.3746 44.9609L64.3419 48.1212C64.4574 48.2451 64.4528 48.4377 64.328 48.557C64.2633 48.612 64.1893 48.6396 64.1154 48.6396Z" fill="#3B2645"/>
<path d="M60.8706 48.6396C60.7828 48.6396 60.695 48.6029 60.6349 48.5295C60.524 48.4011 60.5378 48.2084 60.6719 48.0983L64.411 44.9379C64.5404 44.8278 64.7345 44.8416 64.8455 44.9746C64.9564 45.1031 64.9425 45.2957 64.8085 45.4058L61.0694 48.5662C61.0139 48.6167 60.94 48.6396 60.8706 48.6396Z" fill="#3B2645"/>
<path d="M73.9368 30.9156L72.6103 28.9799C72.4809 28.7919 72.5317 28.5396 72.7212 28.4112C72.9107 28.2827 73.1649 28.3332 73.2944 28.5213L74.1124 29.7138L77.4541 27.003C77.6297 26.8608 77.8885 26.8838 78.0364 27.0626C78.1797 27.2369 78.1566 27.4938 77.9763 27.6406L73.9368 30.9156Z" fill="#3B2645"/>
<path d="M71.0158 57.2764L70.0868 55.9187C69.9898 55.7765 70.0267 55.5884 70.17 55.4921C70.3133 55.3958 70.5028 55.4325 70.5999 55.5747L71.1499 56.3774L73.4424 54.5197C73.5764 54.4142 73.7706 54.4326 73.8769 54.561C73.9832 54.694 73.9647 54.8867 73.8353 54.9922L71.0158 57.2764Z" fill="#3B2645"/>
<path d="M70.3963 58.6069C69.2501 58.6069 68.7786 58.1299 68.5891 57.7079C68.0622 56.5336 69.1391 54.6713 70.4749 53.4329C70.5997 53.3182 70.7938 53.3228 70.914 53.4466C71.0295 53.5705 71.0249 53.7631 70.9001 53.8824C69.5967 55.0887 68.8156 56.6896 69.1576 57.4556C69.3934 57.9785 70.1606 58.0244 70.7614 57.9739C72.6934 57.8042 74.1678 56.474 74.6253 55.2493C74.801 54.7814 74.7964 54.3732 74.6161 54.1897C74.0337 53.598 72.1942 54.3273 71.598 54.63C71.4455 54.708 71.2606 54.6484 71.182 54.497C71.1035 54.3457 71.1635 54.1622 71.3161 54.0842C71.5934 53.942 74.0522 52.7402 75.0598 53.7631C75.4203 54.1301 75.4758 54.7493 75.2077 55.4649C74.6993 56.8318 73.1094 58.3913 70.8169 58.5886C70.6644 58.6023 70.5257 58.6069 70.3963 58.6069Z" fill="#3B2645"/>
<path d="M53.5219 57.8176L52.408 54.9921L50.9429 56.5608L50.4576 55.9324L48.8677 57.813L53.5219 57.8176Z" fill="url(#paint12_radial_700_3944)"/>
<path d="M51.71 54.5839C51.7515 54.3592 51.5944 54.1803 51.3633 54.1803C51.1322 54.1803 50.915 54.3638 50.8734 54.5839C50.8318 54.8087 50.9889 54.9876 51.22 54.9876C51.4511 54.9876 51.6684 54.8087 51.71 54.5839Z" fill="url(#paint13_radial_700_3944)"/>
<path d="M66.8747 30.6359L65.7608 27.8104L64.291 29.3837L63.8104 28.7507L62.2158 30.6314L66.8747 30.6359Z" fill="#3B2645"/>
<path d="M65.0629 27.4066C65.1045 27.1818 64.9474 27.003 64.7163 27.003C64.4852 27.003 64.268 27.1864 64.2264 27.4066C64.1848 27.6314 64.3419 27.8102 64.573 27.8102C64.7995 27.8102 65.0213 27.6268 65.0629 27.4066Z" fill="#3B2645"/>
<path opacity="0.3" d="M45.9463 44.6902C45.9463 44.6902 45.6828 49.7863 44.9526 51.8045H37.9458C37.9458 51.8045 39.374 48.268 39.8546 45.0985L45.9463 44.6902Z" fill="#543753"/>
<path d="M45.9465 44.69C45.9465 44.69 45.7385 48.7861 43.996 50.8457L36.8506 50.6805C36.8506 50.6805 38.9674 48.1531 39.6237 44.6854H45.9465V44.69Z" fill="url(#paint14_radial_700_3944)"/>
<path d="M44.4215 46.6164H40.4466C40.3866 46.6164 40.3403 46.5706 40.3403 46.5109C40.3403 46.4513 40.3866 46.4054 40.4466 46.4054H44.4215C44.4815 46.4054 44.5278 46.4513 44.5278 46.5109C44.5231 46.566 44.4769 46.6164 44.4215 46.6164Z" fill="#3B2645"/>
<path d="M44.0792 47.4011H40.1043C40.0443 47.4011 39.998 47.3552 39.998 47.2956C39.998 47.2359 40.0443 47.1901 40.1043 47.1901H44.0792C44.1393 47.1901 44.1855 47.2359 44.1855 47.2956C44.1809 47.3552 44.1346 47.4011 44.0792 47.4011Z" fill="#3B2645"/>
<path d="M43.7095 48.1899H39.7347C39.6746 48.1899 39.6284 48.144 39.6284 48.0844C39.6284 48.0248 39.6746 47.9789 39.7347 47.9789H43.7095C43.7696 47.9789 43.8158 48.0248 43.8158 48.0844C43.8158 48.144 43.7696 48.1899 43.7095 48.1899Z" fill="#3B2645"/>
<path d="M43.335 49.0066H39.3602C39.3001 49.0066 39.2539 48.9607 39.2539 48.9011C39.2539 48.8415 39.3001 48.7956 39.3602 48.7956H43.335C43.3951 48.7956 43.4413 48.8415 43.4413 48.9011C43.4413 48.9607 43.3951 49.0066 43.335 49.0066Z" fill="#3B2645"/>
<path opacity="0.3" d="M77.5974 35.5026C77.5974 35.5026 77.3108 41.0711 76.5112 43.2728H68.8574C68.8574 43.2728 70.415 39.406 70.9419 35.9475L77.5974 35.5026Z" fill="#543753"/>
<path d="M77.5973 35.5026C77.5973 35.5026 77.3708 39.9794 75.4666 42.227L67.6602 42.0481C67.6602 42.0481 69.9711 39.2868 70.6875 35.5026H77.5973Z" fill="url(#paint15_radial_700_3944)"/>
<path d="M75.9333 37.6035H71.5887C71.524 37.6035 71.4731 37.553 71.4731 37.4888C71.4731 37.4246 71.524 37.3741 71.5887 37.3741H75.9333C75.998 37.3741 76.0488 37.4246 76.0488 37.4888C76.0488 37.553 75.9933 37.6035 75.9333 37.6035Z" fill="#3B2645"/>
<path d="M75.5592 38.4659H71.2147C71.15 38.4659 71.0991 38.4154 71.0991 38.3512C71.0991 38.2869 71.15 38.2365 71.2147 38.2365H75.5592C75.6239 38.2365 75.6747 38.2869 75.6747 38.3512C75.6747 38.4154 75.6193 38.4659 75.5592 38.4659Z" fill="#3B2645"/>
<path d="M75.1569 39.3277H70.8123C70.7476 39.3277 70.6968 39.2772 70.6968 39.213C70.6968 39.1488 70.7476 39.0983 70.8123 39.0983H75.1569C75.2216 39.0983 75.2725 39.1488 75.2725 39.213C75.2725 39.2772 75.2216 39.3277 75.1569 39.3277Z" fill="#3B2645"/>
<path d="M74.7502 40.218H70.4056C70.3409 40.218 70.29 40.1676 70.29 40.1033C70.29 40.0391 70.3409 39.9886 70.4056 39.9886H74.7502C74.8149 39.9886 74.8658 40.0391 74.8658 40.1033C74.8658 40.1676 74.8103 40.218 74.7502 40.218Z" fill="#3B2645"/>
<path d="M17.4848 47.6898L10.6537 46.5339C10.6537 46.5339 9.49819 51.1529 9.1839 52.0611C8.86962 52.9693 7.59398 54.6205 6.45699 58.8359C5.32463 63.0467 3.48975 66.6382 3.48975 66.6382C3.48975 66.6382 4.2616 66.5327 4.61286 67.2345C4.96413 67.9363 5.46329 69.7022 6.53094 68.9592C6.53094 68.9592 12.8722 57.8956 14.536 54.7903C16.1999 51.6804 17.4848 47.6898 17.4848 47.6898Z" fill="#FFEDE5"/>
<path d="M10.6539 46.538C10.6539 46.538 10.3442 47.7811 9.99756 49.1021C11.9203 49.8406 15.5808 49.9461 16.6762 49.9599C17.18 48.6342 17.4804 47.6939 17.4804 47.6939L10.6539 46.538Z" fill="#DD825C"/>
<path d="M4.61736 67.2341C4.2661 66.5323 3.49424 66.6378 3.49424 66.6378C3.49424 66.6378 0.984561 67.7616 0.120269 69.2202C-0.485198 70.2385 1.45137 73.1466 2.67155 74.8025C3.22617 75.5547 4.10433 75.9996 5.04257 75.9996H8.68C8.74932 75.9996 8.80941 75.94 8.80479 75.8712C8.76781 73.5961 7.79722 72.7384 7.03461 72.5365C6.25813 72.3301 5.87914 71.1651 6.34595 70.1147C6.81738 69.0643 6.53544 68.9588 6.53544 68.9588C5.46317 69.7019 4.96862 67.9359 4.61736 67.2341Z" fill="#3B2645"/>
<path d="M11.569 34.1262C11.569 34.1262 9.68788 38.8048 10.774 41.3185L9.92822 47.5658C9.92822 47.5658 14.6287 49.9831 18.1043 49.24C18.1043 49.24 20.5216 41.4882 19.7636 35.2408C19.0056 28.9935 11.948 31.9933 11.569 34.1262Z" fill="#3B2645"/>
<path opacity="0.5" d="M16.9951 39.117L18.5342 47.6899C18.8993 46.2496 19.4123 43.9516 19.6989 41.4105L16.9951 39.117Z" fill="#3B2645"/>
<path d="M5.49112 73.5689C4.40036 71.8763 2.31589 68.0967 0.850754 68.3444C0.559575 68.615 0.296128 68.9132 0.115874 69.2251C-0.489592 70.2434 1.44698 73.1515 2.66715 74.8074C3.22178 75.5596 4.09994 76.0045 5.03818 76.0045H8.6756C8.74493 76.0045 8.80501 75.9449 8.80039 75.8761C8.79577 75.6743 8.78653 75.4816 8.76804 75.3027C8.19493 75.2844 6.47558 75.0963 5.49112 73.5689Z" fill="#E5E5E5"/>
<path d="M2.66715 74.8071C3.22178 75.5594 4.09994 76.0043 5.03818 76.0043H8.22728C7.41845 75.9584 5.69911 75.6328 4.67767 73.798C3.30497 71.3394 1.04949 68.2295 0.115874 69.2248C-0.489592 70.2431 1.44698 73.1512 2.66715 74.8071Z" fill="#AFAFAF"/>
<path d="M30.6437 71.5691C31.1521 71.6425 31.1198 70.6105 31.1198 70.6105C31.1198 70.6105 28.134 53.3363 27.7365 51.685C27.3391 50.0337 26.3269 44.9377 26.3269 44.9377L20.4663 47.566C20.4663 47.566 21.9592 51.4924 22.0562 52.3776C22.1533 53.2629 22.8281 58.0241 23.8403 60.1065C24.8525 62.189 27.3391 67.7666 27.6256 71.138C29.0538 70.0509 30.1353 71.4957 30.6437 71.5691Z" fill="#FFEDE5"/>
<path d="M27.1215 75.8488C27.1307 75.936 27.2093 76.0048 27.2971 76.0048H36.4115C36.5178 76.0048 36.601 75.9176 36.5964 75.8167C36.5779 75.3168 36.467 73.9866 35.8245 73.7251C35.0295 73.404 32.372 72.8766 31.5724 70.9684C31.3182 70.3584 31.1333 70.5923 31.1194 70.6107C31.1194 70.6107 31.1518 71.6427 30.6434 71.5693C30.135 71.4959 29.0534 70.0511 27.6299 71.1381C27.6299 71.1381 26.932 74.2067 27.1215 75.8488Z" fill="#3B2645"/>
<path d="M27.2973 76.0001H36.4117C36.518 76.0001 36.6012 75.9129 36.5966 75.812C36.5919 75.6836 36.5827 75.5047 36.555 75.3029H27.0894C27.0894 75.4955 27.1032 75.679 27.1217 75.8487C27.131 75.9359 27.2049 76.0001 27.2973 76.0001Z" fill="#E5E5E5"/>
<path d="M21.3861 50.0888C21.3861 50.0888 24.4134 50.6713 26.9092 47.8045L26.3315 44.9377L20.4663 47.566L21.3861 50.0888Z" fill="#DD825C"/>
<path d="M24.88 34.7044C24.88 34.7044 26.6179 42.0571 27.7364 47.0156C27.7364 47.0156 25.0464 50.3227 20.3922 49.3411C20.3922 49.3411 18.5203 43.6213 18.2245 43.0479C17.9287 42.4745 14.4808 37.9244 15.9783 34.3604C17.4758 30.7963 23.5073 31.6266 24.88 34.7044Z" fill="#3B2645"/>
<path d="M22.4998 13.4668C22.4998 13.4668 18.3956 12.3935 16.9952 12.421C15.5948 12.444 13.4733 14.2283 12.8725 18.0078C12.2716 21.7874 12.5582 26.8376 12.2716 28.443C11.9804 30.0484 10.8989 34.5711 10.8989 34.6399C10.8989 34.7133 16.5099 36.3691 18.5204 36.3324C20.5263 36.2957 21.1225 35.9563 21.1225 35.9563C21.1225 35.9563 22.0284 34.3417 22.0792 34.4105C22.1347 34.4839 22.7124 35.8279 22.7124 35.8279L25.1851 35.4288C25.1851 35.4288 24.3671 30.5805 24.3902 29.9613C24.4133 29.3374 25.3654 19.8013 25.5364 19.0582C25.6982 18.3197 25.273 14.6548 22.4998 13.4668Z" fill="#AA8CA7"/>
<path opacity="0.5" d="M21.298 20.5948L24.4039 29.7227C24.5333 28.1036 25.3745 19.7554 25.5317 19.0628C25.7027 18.3197 25.2728 14.6548 22.4997 13.4668C22.4997 13.4668 18.3955 12.3935 16.9951 12.421C16.8194 12.4256 16.6345 12.4531 16.4404 12.5128L23.0358 16.3199L21.298 20.5948Z" fill="#543753"/>
<path d="M26.5809 5.28359C26.5809 5.28359 25.8553 12.0125 23.7061 13.0721C21.5523 14.1317 19.6897 9.3017 19.9069 7.39814C20.1242 5.49459 23.5952 2.80667 26.5809 5.28359Z" fill="#FFEDE5"/>
<path d="M23.3365 8.91676C23.3365 8.91676 24.0621 8.80209 24.284 7.47189C24.284 7.47189 25.1899 7.21961 25.0142 6.02702C25.0142 6.02702 26.2529 6.67377 27.1403 6.16004C28.0277 5.64631 28.2449 4.3941 28.0878 4.18769C27.9353 3.98128 27.6441 4.12347 27.6441 4.12347C27.6441 4.12347 28.0508 2.65567 26.2621 2.63732C24.4735 2.61439 22.9991 1.71995 21.7604 1.40345C20.5218 1.08696 18.6222 2.00433 18.6222 3.77487C18.6222 3.77487 16.3806 4.59592 17.5961 9.10482C18.8117 13.6137 22.4676 11.6184 22.4676 11.6184C22.4676 11.6184 22.1718 9.00391 23.3365 8.91676Z" fill="#3B2645"/>
<path d="M23.1019 10.2164C23.5724 10.0896 23.7901 9.38829 23.5882 8.64995C23.3862 7.9116 22.841 7.41582 22.3705 7.54259C21.9 7.66936 21.6823 8.37067 21.8843 9.10902C22.0862 9.84737 22.6314 10.3431 23.1019 10.2164Z" fill="#FFEDE5"/>
<path d="M39.1895 22.9207L44.3012 24.0399C44.4122 24.0629 44.4861 23.9299 44.4076 23.8473L40.4882 20.0585L39.1895 22.9207Z" fill="#F2F9FF"/>
<path d="M39.3279 21.2644C38.9905 22.0717 38.9304 22.8148 39.1892 22.9203C39.4481 23.0258 39.9334 22.4616 40.2708 21.6497C40.6081 20.8424 40.6682 20.0993 40.4094 19.9938C40.146 19.8883 39.6607 20.4571 39.3279 21.2644Z" fill="url(#paint16_radial_700_3944)"/>
<path d="M39.1891 22.9206L0.453125 4.24739L2.21868 0.0137024L40.4093 19.9941L39.1891 22.9206Z" fill="url(#paint17_radial_700_3944)"/>
<path d="M43.437 23.8518C43.5757 23.5858 43.6635 23.3656 43.7143 23.1867L44.4215 23.8701C44.4954 23.9435 44.4307 24.072 44.3244 24.049L43.437 23.8518Z" fill="#3B2645"/>
<path d="M6.25408 2.12383C6.41122 2.51371 6.28181 3.38063 5.88895 4.32095C5.44987 5.37593 4.83516 6.14652 4.4423 6.17404L2.20068 5.09154L3.94313 0.91748L6.25408 2.12383Z" fill="#3B2645"/>
<path d="M4.19246 1.0547L4.48363 1.20607C4.68238 1.55926 4.55758 2.48122 4.14161 3.4674C3.68867 4.55449 3.05085 5.33885 2.66261 5.3205L2.48698 5.23793L0.44873 4.25176L2.21429 0.0180664L4.19246 1.0547Z" fill="#EEEEEE"/>
<path d="M2.01552 2.4171C2.50371 1.24686 2.59357 0.172513 2.21623 0.0174777C1.8389 -0.137558 1.13726 0.685428 0.649072 1.85567C0.160888 3.02591 0.071027 4.10026 0.448362 4.2553C0.825697 4.41033 1.52734 3.58735 2.01552 2.4171Z" fill="#EEEEEE"/>
<path d="M18.4741 11.3755C18.3863 11.3755 18.2939 11.3572 18.2107 11.3113L1.75218 2.92649C1.47024 2.77971 1.35469 2.43569 1.50259 2.15589C1.6505 1.87609 1.99714 1.76142 2.27907 1.9082L18.7376 10.2884C19.0195 10.4352 19.1351 10.7792 18.9872 11.059C18.8855 11.2608 18.6821 11.3755 18.4741 11.3755Z" fill="#EEEEEE"/>
<path d="M37.6503 18.4486C37.5856 18.1183 35.173 16.8982 35.0205 16.8156C34.8679 16.7331 34.6184 16.9624 34.6184 16.9624L34.8356 17.0771C34.8356 17.0771 34.7016 17.733 34.6369 18.0312C34.5721 18.3293 33.523 19.4577 33.523 19.4577C33.523 19.4577 33.2133 19.1779 32.8528 18.7329C32.4923 18.288 32.0763 18.3385 32.0486 18.421C32.0209 18.5036 32.6079 19.8567 32.691 19.9898C32.7742 20.1228 33.1995 20.898 33.1995 21.0402C33.1995 21.1823 29.807 24.8381 29.807 24.8381C29.502 24.1638 28.9797 23.3519 28.4435 22.5768C27.4822 24.1134 25.5318 25.5353 24.2607 26.3563C25.1944 27.4664 28.1662 30.8469 29.6637 30.6497C31.4524 30.4157 35.4041 22.7602 35.5243 22.5355C35.6398 22.3107 35.8154 22.2373 36.5318 21.641C37.2482 21.0447 37.7104 18.7834 37.6503 18.4486Z" fill="#FFEDE5"/>
<path d="M28.4387 22.5731C27.7039 21.5043 26.9505 20.5136 26.7379 20.064C26.3774 19.2889 25.5917 15.6239 23.4702 15.5735C21.3488 15.5276 20.7109 17.633 20.7109 20.064C20.7109 22.4951 23.9647 26.0086 23.9647 26.0086C23.9647 26.0086 24.0711 26.1416 24.2513 26.3572C25.5223 25.5316 27.4728 24.1051 28.4387 22.5731Z" fill="#AA8CA7"/>
<path opacity="0.5" d="M23.4701 15.5678C22.9802 15.5587 22.5735 15.6596 22.2314 15.8568L25.989 18.0264C25.476 16.8384 24.6995 15.5954 23.4701 15.5678Z" fill="#543753"/>
</g>
<defs>
<linearGradient id="paint0_linear_700_3944" x1="27.4946" y1="41.954" x2="115.234" y2="41.954" gradientUnits="userSpaceOnUse">
<stop offset="0.0747467" stop-color="#97C1FB"/>
<stop offset="0.6348" stop-color="#94B2FB"/>
<stop offset="1" stop-color="#91A5FB"/>
</linearGradient>
<linearGradient id="paint1_linear_700_3944" x1="19.2515" y1="41.954" x2="106.991" y2="41.954" gradientUnits="userSpaceOnUse">
<stop offset="0.0747467" stop-color="#97C1FB"/>
<stop offset="0.6348" stop-color="#94B2FB"/>
<stop offset="1" stop-color="#91A5FB"/>
</linearGradient>
<radialGradient id="paint2_radial_700_3944" cx="0" cy="0" r="1" gradientUnits="userSpaceOnUse" gradientTransform="translate(79.4266 10.9247) scale(24.4804 24.295)">
<stop offset="0.0747467" stop-color="#F99E96"/>
<stop offset="0.7122" stop-color="#F78F98"/>
<stop offset="1" stop-color="#F68699"/>
</radialGradient>
<radialGradient id="paint3_radial_700_3944" cx="0" cy="0" r="1" gradientUnits="userSpaceOnUse" gradientTransform="translate(79.4265 10.9245) scale(24.4804 24.295)">
<stop offset="0.0747467" stop-color="#F99E96"/>
<stop offset="0.7122" stop-color="#F78F98"/>
<stop offset="1" stop-color="#F68699"/>
</radialGradient>
<radialGradient id="paint4_radial_700_3944" cx="0" cy="0" r="1" gradientUnits="userSpaceOnUse" gradientTransform="translate(79.4267 10.9246) scale(24.4804 24.2952)">
<stop offset="0.0747467" stop-color="#F99E96"/>
<stop offset="0.7122" stop-color="#F78F98"/>
<stop offset="1" stop-color="#F68699"/>
</radialGradient>
<radialGradient id="paint5_radial_700_3944" cx="0" cy="0" r="1" gradientUnits="userSpaceOnUse" gradientTransform="translate(79.4266 10.9251) scale(24.4806 24.295)">
<stop offset="0.0747467" stop-color="#F99E96"/>
<stop offset="0.7122" stop-color="#F78F98"/>
<stop offset="1" stop-color="#F68699"/>
</radialGradient>
<radialGradient id="paint6_radial_700_3944" cx="0" cy="0" r="1" gradientUnits="userSpaceOnUse" gradientTransform="translate(79.4265 10.9246) scale(24.4804 24.295)">
<stop offset="0.0747467" stop-color="#F99E96"/>
<stop offset="0.7122" stop-color="#F78F98"/>
<stop offset="1" stop-color="#F68699"/>
</radialGradient>
<radialGradient id="paint7_radial_700_3944" cx="0" cy="0" r="1" gradientUnits="userSpaceOnUse" gradientTransform="translate(79.4266 10.9246) scale(24.4804 24.295)">
<stop offset="0.0747467" stop-color="#F99E96"/>
<stop offset="0.7122" stop-color="#F78F98"/>
<stop offset="1" stop-color="#F68699"/>
</radialGradient>
<radialGradient id="paint8_radial_700_3944" cx="0" cy="0" r="1" gradientUnits="userSpaceOnUse" gradientTransform="translate(79.4265 10.9246) scale(24.4804 24.295)">
<stop offset="0.0747467" stop-color="#F99E96"/>
<stop offset="0.7122" stop-color="#F78F98"/>
<stop offset="1" stop-color="#F68699"/>
</radialGradient>
<radialGradient id="paint9_radial_700_3944" cx="0" cy="0" r="1" gradientUnits="userSpaceOnUse" gradientTransform="translate(79.4266 10.9246) scale(24.4807 24.295)">
<stop offset="0.0747467" stop-color="#F99E96"/>
<stop offset="0.7122" stop-color="#F78F98"/>
<stop offset="1" stop-color="#F68699"/>
</radialGradient>
<radialGradient id="paint10_radial_700_3944" cx="0" cy="0" r="1" gradientUnits="userSpaceOnUse" gradientTransform="translate(79.4265 10.9246) scale(24.4804 24.295)">
<stop offset="0.0747467" stop-color="#F99E96"/>
<stop offset="0.7122" stop-color="#F78F98"/>
<stop offset="1" stop-color="#F68699"/>
</radialGradient>
<radialGradient id="paint11_radial_700_3944" cx="0" cy="0" r="1" gradientUnits="userSpaceOnUse" gradientTransform="translate(79.4264 10.9246) scale(24.4804 24.295)">
<stop offset="0.0747467" stop-color="#F99E96"/>
<stop offset="0.7122" stop-color="#F78F98"/>
<stop offset="1" stop-color="#F68699"/>
</radialGradient>
<radialGradient id="paint12_radial_700_3944" cx="0" cy="0" r="1" gradientUnits="userSpaceOnUse" gradientTransform="translate(53.7814 53.4269) scale(8.69533 8.62946)">
<stop offset="0.0747467" stop-color="#F99E96"/>
<stop offset="0.7122" stop-color="#F78F98"/>
<stop offset="1" stop-color="#F68699"/>
</radialGradient>
<radialGradient id="paint13_radial_700_3944" cx="0" cy="0" r="1" gradientUnits="userSpaceOnUse" gradientTransform="translate(53.7812 53.4271) scale(8.69546 8.6295)">
<stop offset="0.0747467" stop-color="#F99E96"/>
<stop offset="0.7122" stop-color="#F78F98"/>
<stop offset="1" stop-color="#F68699"/>
</radialGradient>
<radialGradient id="paint14_radial_700_3944" cx="0" cy="0" r="1" gradientUnits="userSpaceOnUse" gradientTransform="translate(47.1619 44.0578) scale(9.24615 9.17624)">
<stop offset="0.0747467" stop-color="#F99E96"/>
<stop offset="0.7122" stop-color="#F78F98"/>
<stop offset="1" stop-color="#F68699"/>
</radialGradient>
<radialGradient id="paint15_radial_700_3944" cx="0" cy="0" r="1" gradientUnits="userSpaceOnUse" gradientTransform="translate(78.631 33.8272) scale(9.91827 9.84306)">
<stop offset="0.0747467" stop-color="#F99E96"/>
<stop offset="0.7122" stop-color="#F78F98"/>
<stop offset="1" stop-color="#F68699"/>
</radialGradient>
<radialGradient id="paint16_radial_700_3944" cx="0" cy="0" r="1" gradientUnits="userSpaceOnUse" gradientTransform="translate(47.8128 19.2882) scale(30.7848 30.552)">
<stop offset="0.0747467" stop-color="#F99E96"/>
<stop offset="0.7122" stop-color="#F78F98"/>
<stop offset="1" stop-color="#F68699"/>
</radialGradient>
<radialGradient id="paint17_radial_700_3944" cx="0" cy="0" r="1" gradientUnits="userSpaceOnUse" gradientTransform="translate(47.8128 19.2886) scale(30.7852 30.5521)">
<stop offset="0.0747467" stop-color="#F99E96"/>
<stop offset="0.7122" stop-color="#F78F98"/>
<stop offset="1" stop-color="#F68699"/>
</radialGradient>
<clipPath id="clip0_700_3944">
<rect width="116" height="76" fill="white"/>
</clipPath>
</defs>
</svg>
